<svg width="17" height="17" viewBox="0 0 17 17" fill="none" xmlns="http://www.w3.org/2000/svg">
<path d="M8.5019 4.13788C6.08985 4.13788 4.14428 6.08388 4.14428 8.49646C4.14428 10.909 6.08985 12.855 8.5019 12.855C10.9139 12.855 12.8595 10.909 12.8595 8.49646C12.8595 6.08388 10.9139 4.13788 8.5019 4.13788ZM8.5019 11.3301C6.94317 11.3301 5.66888 10.0593 5.66888 8.49646C5.66888 6.93359 6.93938 5.66281 8.5019 5.66281C10.0644 5.66281 11.3349 6.93359 11.3349 8.49646C11.3349 10.0593 10.0606 11.3301 8.5019 11.3301ZM14.0542 3.95959C14.0542 4.5248 13.5991 4.97621 13.0378 4.97621C12.4727 4.97621 12.0214 4.52101 12.0214 3.95959C12.0214 3.39817 12.4765 2.94296 13.0378 2.94296C13.5991 2.94296 14.0542 3.39817 14.0542 3.95959ZM16.9403 4.99138C16.8758 3.62956 16.5648 2.42327 15.5674 1.42941C14.5737 0.435543 13.3677 0.124486 12.0062 0.0562056C10.603 -0.0234552 6.39704 -0.0234552 4.99381 0.0562056C3.63609 0.120693 2.43006 0.431749 1.43263 1.42561C0.435193 2.41948 0.127998 3.62577 0.0597323 4.98759C-0.0199108 6.39114 -0.0199108 10.598 0.0597323 12.0015C0.124205 13.3634 0.435193 14.5697 1.43263 15.5635C2.43006 16.5574 3.63229 16.8684 4.99381 16.9367C6.39704 17.0164 10.603 17.0164 12.0062 16.9367C13.3677 16.8722 14.5737 16.5612 15.5674 15.5635C16.561 14.5697 16.872 13.3634 16.9403 12.0015C17.0199 10.598 17.0199 6.39493 16.9403 4.99138ZM15.1274 13.5075C14.8316 14.251 14.259 14.8238 13.5118 15.1235C12.393 15.5673 9.73826 15.4649 8.5019 15.4649C7.26553 15.4649 4.60697 15.5635 3.49197 15.1235C2.74863 14.8276 2.17596 14.2548 1.87635 13.5075C1.43263 12.3885 1.53503 9.7331 1.53503 8.49646C1.53503 7.25982 1.43642 4.60067 1.87635 3.48541C2.17217 2.74191 2.74484 2.16911 3.49197 1.86944C4.61076 1.42561 7.26553 1.52803 8.5019 1.52803C9.73826 1.52803 12.3968 1.42941 13.5118 1.86944C14.2552 2.16532 14.8278 2.73812 15.1274 3.48541C15.5712 4.60446 15.4688 7.25982 15.4688 8.49646C15.4688 9.7331 15.5712 12.3923 15.1274 13.5075Z" fill="white"/>
</svg>
