<svg width="17" height="15" viewBox="0 0 17 15" fill="none" xmlns="http://www.w3.org/2000/svg">
<path d="M15.2526 3.98612C15.2634 4.13924 15.2634 4.29239 15.2634 4.44551C15.2634 9.1158 11.7577 14.4971 5.35027 14.4971C3.37627 14.4971 1.54252 13.9174 0 12.9112C0.280468 12.9439 0.550112 12.9549 0.841371 12.9549C2.47016 12.9549 3.96955 12.3971 5.16689 11.4455C3.63516 11.4127 2.35152 10.3955 1.90925 8.99551C2.12501 9.0283 2.34073 9.05018 2.56728 9.05018C2.88008 9.05018 3.19292 9.00641 3.48415 8.92989C1.8877 8.60174 0.690329 7.17988 0.690329 5.46269V5.41896C1.15415 5.68146 1.69353 5.84552 2.26519 5.86737C1.32674 5.23298 0.711911 4.15018 0.711911 2.92517C0.711911 2.26893 0.884468 1.66737 1.18652 1.14237C2.90163 3.28612 5.4797 4.68609 8.37054 4.83924C8.31662 4.57674 8.28425 4.30333 8.28425 4.02989C8.28425 2.08299 9.83756 0.49707 11.7684 0.49707C12.7716 0.49707 13.6776 0.923632 14.3141 1.61269C15.1015 1.45958 15.8566 1.16425 16.5254 0.759572C16.2665 1.5799 15.7164 2.26897 14.9937 2.70644C15.6948 2.62991 16.3744 2.43299 17 2.15958C16.5255 2.85955 15.9321 3.48297 15.2526 3.98612Z" fill="white"/>
</svg>
